<?xml version="1.0" encoding="UTF-8" standalone="no"?>
<!-- Created with Inkscape (http://www.inkscape.org/) -->

<svg
   xmlns:dc="http://purl.org/dc/elements/1.1/"
   xmlns:cc="http://creativecommons.org/ns#"
   xmlns:rdf="http://www.w3.org/1999/02/22-rdf-syntax-ns#"
   xmlns:svg="http://www.w3.org/2000/svg"
   xmlns="http://www.w3.org/2000/svg"
   xmlns:sodipodi="http://sodipodi.sourceforge.net/DTD/sodipodi-0.dtd"
   xmlns:inkscape="http://www.inkscape.org/namespaces/inkscape"
   width="297.78278"
   height="73.382324"
   id="svg2"
   version="1.1"
   inkscape:version="0.48.4 r"
   sodipodi:docname="logo.svg">
  <defs
     id="defs4" />
  <sodipodi:namedview
     id="base"
     pagecolor="#ffffff"
     bordercolor="#666666"
     borderopacity="1.0"
     inkscape:pageopacity="0.0"
     inkscape:pageshadow="2"
     inkscape:zoom="0.98994949"
     inkscape:cx="182.37652"
     inkscape:cy="-5.439252"
     inkscape:document-units="px"
     inkscape:current-layer="text2985"
     showgrid="false"
     inkscape:window-width="1280"
     inkscape:window-height="1001"
     inkscape:window-x="1272"
     inkscape:window-y="-8"
     inkscape:window-maximized="1"
     fit-margin-top="5"
     fit-margin-left="5"
     fit-margin-right="5"
     fit-margin-bottom="5" />
  <metadata
     id="metadata7">
    <rdf:RDF>
      <cc:Work
         rdf:about="">
        <dc:format>image/svg+xml</dc:format>
        <dc:type
           rdf:resource="http://purl.org/dc/dcmitype/StillImage" />
        <dc:title></dc:title>
      </cc:Work>
    </rdf:RDF>
  </metadata>
  <g
     inkscape:label="Layer 1"
     inkscape:groupmode="layer"
     id="layer1"
     transform="translate(-202.09418,-348.26093)">
    <g
       style="font-size:72px;font-style:normal;font-variant:normal;font-weight:normal;font-stretch:normal;line-height:125%;letter-spacing:0px;word-spacing:0px;fill:#000000;fill-opacity:1;stroke:none;font-family:Lao UI;-inkscape-font-specification:Lao UI"
       id="text2985">
      <path
         d="m 228.46478,362.72015 0,28.1272 c -2e-5,3.61085 -0.31276,5.97877 -0.93823,7.10376 -0.96828,1.73438 -3.08644,2.60157 -6.35449,2.60156 -1.78127,1e-5 -3.17873,-0.0915 -4.19238,-0.27465 -0.72658,-0.11719 -1.36964,-0.30249 -1.9292,-0.55591 -1e-5,-1.02099 0.0857,-2.38256 0.25708,-4.08472 0.14354,-1.10594 0.37645,-2.80736 0.69873,-5.10425 l 0.0681,-0.48779 c 0.14501,-1.35203 -0.22266,-2.50999 -1.10303,-3.47388 -0.65186,-0.65183 -1.54908,-0.97776 -2.69165,-0.97778 -1.16895,2e-5 -2.17383,0.36477 -3.01464,1.09424 -0.89649,0.85695 -1.29859,1.96291 -1.2063,3.31787 0.13769,2.14015 0.13769,4.52711 0,7.16089 -0.13624,3.16846 -0.45777,5.86084 -0.9646,8.07715 1.51464,0.91845 3.82323,1.61645 6.92578,2.09399 2.4829,0.36767 4.86693,0.55151 7.1521,0.55151 4.37547,0 7.77317,-0.94409 10.19311,-2.83227 3.32517,-2.59277 4.98777,-6.91552 4.9878,-12.96826 l 0,-29.36866 c -3e-5,-0.50386 0.15011,-0.80928 0.45044,-0.91626 0.28707,-0.0703 1.02902,-0.0593 2.22583,0.033 l 0.88989,0.0703 c 1.31539,0.0909 2.37154,-0.25118 3.16846,-1.02613 0.74996,-0.74995 1.12496,-1.65376 1.125,-2.71142 -4e-5,-1.06197 -0.37504,-1.93941 -1.125,-2.63233 -0.8101,-0.78217 -1.89555,-1.09858 -3.25635,-0.94922 -4.23783,0.21832 -8.18191,0.32745 -11.83228,0.3274 -2.57961,-0.038 -5.2925,-0.17061 -8.13867,-0.39771 -1.32277,-0.1479 -2.34669,0.18389 -3.07178,0.99536 -0.62696,0.74273 -0.94044,1.62823 -0.94043,2.6565 -1e-5,1.03715 0.31347,1.92631 0.94043,2.66748 0.71044,0.80424 1.72265,1.1602 3.03662,1.06787 l 2.06104,-0.0681 c 2.69676,-0.0922 4.41282,-0.0966 5.14819,-0.0132 0.95359,0.16557 1.4304,0.4644 1.43042,0.89648 z"
         style="letter-spacing:-6px;fill:#008000"
         id="path3225" />
      <path
         d="m 267.77679,404.99335 1.35352,-0.89649 -0.0989,0.43506 c 0.2197,0.71924 0.45481,1.2041 0.70533,1.45459 0.46578,0.5332 1.16232,0.79981 2.08959,0.79981 1.88083,-0.0923 3.33908,-0.16114 4.37476,-0.20655 1.57467,0 2.80074,0.0688 3.67822,0.20655 0.96969,0.0908 1.76437,-0.28711 2.38404,-1.13379 0.38081,-0.70899 0.57124,-1.55347 0.57129,-2.53345 -5e-5,-0.97412 -0.18169,-1.79882 -0.54493,-2.47412 -0.62846,-0.93456 -1.41068,-1.35571 -2.34668,-1.26343 -1.31253,0.2754 -2.12772,0.38306 -2.44555,0.323 -0.48637,-0.10986 -0.72953,-0.46581 -0.72949,-1.06787 l 0,-18.47461 c -4e-5,-4.55563 -1.82597,-8.03464 -5.47779,-10.43701 -2.67923,-1.69186 -5.86746,-2.53781 -9.5647,-2.53785 -3.05421,4e-5 -5.86158,0.356 -8.42211,1.06788 -2.82863,0.81449 -5.30421,2.04202 -7.42676,3.68261 -0.91553,0.64603 -1.42896,1.52567 -1.54029,2.63892 -0.0908,0.93021 0.12964,1.83475 0.66138,2.71362 0.51416,0.85257 1.24804,1.39676 2.20166,1.63257 1.02245,0.19192 2.02074,-0.0586 2.99487,-0.75146 1.59521,-1.23777 3.37646,-2.16282 5.34375,-2.77515 1.92333,-0.58298 3.98582,-0.87448 6.1875,-0.87451 2.14012,3e-5 4.06199,0.85037 5.76563,2.55102 0.92575,1.22757 1.38864,2.52835 1.38867,3.90235 -0.56106,-0.2197 -1.87869,-0.37717 -3.95288,-0.47242 -1.87942,-0.0981 -3.33767,-0.14719 -4.37475,-0.14721 -5.23537,2e-5 -9.49147,1.44875 -12.76832,4.34619 -3.0791,1.99514 -4.61865,5.26173 -4.61865,9.7998 0,4.14405 1.17553,7.39161 3.52661,9.74268 2.43017,2.43018 5.92455,3.64526 10.48316,3.64526 2.79783,0 5.35398,-0.33398 7.66845,-1.00195 1.77244,-0.48633 2.75022,-1.14038 2.93335,-1.96216 z m 1.10303,-9.95801 c -1.09426,1.45899 -2.63528,2.70704 -4.62305,3.74414 -2.23244,1.18214 -4.59303,1.7732 -7.08178,1.77319 -1.79299,1e-5 -3.23952,-0.56981 -4.3396,-1.70947 -1.04884,-1.08983 -1.57326,-2.5371 -1.57324,-4.3418 -2e-5,-1.81639 0.7097,-3.31126 2.12915,-4.48462 1.8574,-1.55125 4.72703,-2.32688 8.60888,-2.3269 0.65769,2e-5 1.70945,0.044 3.15528,0.13184 1.56442,0.13771 2.80588,0.26955 3.72436,0.3955 z"
         style="letter-spacing:0px;fill:#008000"
         id="path3227" />
      <path
         d="m 292.34003,377.4726 0,21.44091 c -1e-5,0.48194 -0.22194,0.7339 -0.66577,0.75586 -0.45558,0.0381 -1.20631,-0.0732 -2.2522,-0.33398 -1.18067,-0.19921 -2.09327,0.12378 -2.73779,0.96899 -0.50391,0.7295 -0.75587,1.62159 -0.75586,2.67627 -10e-6,1.06055 0.25195,1.9563 0.75586,2.68726 0.64306,0.83642 1.54394,1.16089 2.70263,0.97339 1.95556,-0.1333 4.96728,-0.19995 9.03516,-0.19995 4.0576,0 7.49412,0.0666 10.30957,0.19995 1.38425,0.1875 2.51071,-0.10254 3.37939,-0.87012 0.8115,-0.75439 1.21726,-1.68457 1.21729,-2.79053 -3e-5,-1.10009 -0.40579,-2.02734 -1.21729,-2.78174 -0.86868,-0.77489 -1.96072,-1.07006 -3.27612,-0.88549 l -0.323,0 c -3.22268,0.32666 -5.35768,0.46802 -6.40503,0.42407 -1.25099,-0.0659 -1.87648,-0.34057 -1.87646,-0.82398 l 0,-15.6643 c 2.80662,-2.8491 5.13718,-4.97458 6.9917,-6.37647 1.99509,-1.47506 3.54269,-2.21261 4.64282,-2.21264 0.87009,3e-5 1.4509,0.19925 1.74243,0.59765 0.53171,0.79544 0.81882,2.18118 0.86133,4.15723 -3e-5,1.12209 0.44162,2.03909 1.32495,2.75097 0.77926,0.60354 1.73434,0.88186 2.86523,0.83497 1.11764,-0.0556 2.06027,-0.43943 2.82789,-1.15137 0.85689,-0.79978 1.28536,-1.56443 1.2854,-2.29395 -0.0557,-3.89792 -1.04301,-6.92941 -2.96192,-9.09448 -1.89261,-2.09029 -4.19608,-3.13546 -6.9104,-3.1355 -2.13577,4e-5 -3.99172,0.34428 -5.56787,1.03272 -1.82668,0.77347 -3.80422,2.06327 -5.93262,3.86938 l -0.61743,0.41089 c -0.35597,0.54789 -0.46144,0.80277 -0.3164,0.76465 -0.15676,-0.28708 -0.23513,-1.87643 -0.23511,-4.76807 -2.43019,0.13774 -4.54982,0.20658 -6.35889,0.20655 -1.76807,3e-5 -3.26075,-0.063 -4.47803,-0.18897 -1.17188,-0.19625 -2.07715,0.15531 -2.71582,1.05469 -0.49951,0.7222 -0.74927,1.6099 -0.74926,2.66308 -10e-6,1.0767 0.23949,1.93363 0.7185,2.57081 0.68115,0.87014 1.64062,1.17556 2.87842,0.91625 l 0.0923,-0.0351 c 0.84814,-0.0395 1.48608,0.0213 1.91382,0.18237 0.53906,0.20072 0.80859,0.68997 0.8086,1.46778 z"
         style="fill:#008000"
         id="path3229" />
      <path
         d="m 347.69354,360.80414 c 2.77586,4e-5 4.83909,0.51933 6.1897,1.55786 1.88376,1.76371 2.68796,4.16093 2.4126,7.19165 -0.0923,1.19095 0.30319,2.17899 1.18652,2.96411 0.76462,0.60062 1.72995,0.90091 2.896,0.90088 1.12203,3e-5 2.04415,-0.30612 2.76635,-0.91846 0.832,-0.79537 1.17037,-1.82369 1.01514,-3.08496 -0.26078,-1.56295 -0.3018,-3.49727 -0.12305,-5.80298 0.22262,-2.53267 0.65768,-4.44868 1.30518,-5.74804 0.47017,-1.16304 0.36104,-2.1606 -0.32739,-2.99268 -0.54643,-0.602 -1.34184,-1.02753 -2.38623,-1.27661 -1.16899,-0.2226 -2.20023,-0.20795 -3.09375,0.0439 -1.16898,0.32525 -1.78641,0.91192 -1.8523,1.76001 l -0.11865,0.29883 c -0.0249,0.12164 0.0644,0.18243 0.26807,0.18238 -0.13627,0.0469 -0.58304,-0.17061 -1.34034,-0.65259 -0.83352,-0.49214 -2.18191,-0.91035 -4.04516,-1.25464 -1.8721,-0.33686 -3.57132,-0.50532 -5.09766,-0.50537 -5.59425,5e-5 -9.95143,1.41802 -13.07153,4.2539 -3.06153,2.77446 -4.59229,6.50908 -4.59229,11.20386 0,5.1973 1.80981,9.06815 5.42945,11.61255 2.09325,1.42678 5.67625,2.70413 10.74902,3.83203 l 1.51172,0.34497 c 3.5654,0.8467 5.97726,1.72781 7.23559,2.64331 1.3989,1.00197 2.09836,2.5093 2.09839,4.52198 -3e-5,2.9297 -0.87308,5.27637 -2.61914,7.04003 -1.43704,1.13527 -3.70681,1.70289 -6.80932,1.70289 -3.64748,0 -6.35231,-0.63867 -8.11451,-1.91602 -1.98048,-1.36376 -2.81397,-3.65331 -2.50048,-6.86865 0.0542,-1.1953 -0.38454,-2.14378 -1.31617,-2.84546 -0.84669,-0.56541 -1.771,-0.82542 -2.77295,-0.78003 -1.32129,2e-5 -2.32764,0.34572 -3.01904,1.03711 -0.78809,0.83937 -1.03638,1.9153 -0.74487,3.22778 0.49218,1.91749 0.78295,3.95875 0.87231,6.12378 0.0923,2.32325 -0.0593,4.22535 -0.45483,5.7063 -0.24756,0.93018 -0.0645,1.76367 0.54932,2.50049 0.62841,0.62842 1.44213,1.05395 2.44116,1.27661 1.03856,0.19043 1.96874,0.12305 2.79053,-0.20215 0.9785,-0.36621 1.53074,-1.05176 1.65673,-2.05664 0.0337,-0.37207 0.0608,-0.51196 0.0813,-0.41968 0.26806,0.0337 1.02831,0.39551 2.28076,1.08545 1.0078,0.50244 2.21556,0.87451 3.6233,1.11621 1.22312,0.23291 2.74216,0.34937 4.55712,0.34937 5.58396,0 9.74558,-1.33301 12.48487,-3.99902 3.4526,-2.79199 5.17891,-6.49585 5.17895,-11.11158 -4e-5,-2.79637 -0.47611,-5.22727 -1.42822,-7.29272 -0.70902,-1.59519 -2.01054,-2.98386 -3.90454,-4.16602 -0.89066,-0.81149 -2.30643,-1.53366 -4.24732,-2.1665 -1.05178,-0.32224 -2.79714,-0.74192 -5.23608,-1.25903 l -2.34448,-0.52076 c -3.4219,-0.82028 -5.7239,-1.64425 -6.90601,-2.47192 -2.0171,-1.49118 -3.02565,-3.62106 -3.02563,-6.38965 -2e-5,-2.37593 0.69505,-4.19966 2.0852,-5.47119 1.7036,-1.53658 4.31248,-2.30489 7.82666,-2.30493 z"
         style="letter-spacing:-1.92000008px"
         id="path3231" />
      <path
         d="m 392.06114,374.52167 c 2.93698,3e-5 5.2302,1.0159 6.87964,3.0476 1.70065,2.61624 2.55099,5.70926 2.55103,9.27906 -4e-5,3.53908 -0.80204,6.41383 -2.40601,8.62427 -1.74319,2.42286 -4.08475,3.63428 -7.02466,3.63427 -3.03957,10e-6 -5.43019,-1.21141 -7.17187,-3.63427 -1.5967,-2.20019 -2.39504,-5.07494 -2.39502,-8.62427 -2e-5,-3.58006 0.85032,-6.676 2.55102,-9.28784 1.64061,-2.02585 3.97923,-3.03879 7.01587,-3.03882 z m -17.24853,33.83569 c -1e-5,0.47607 -0.13551,0.76538 -0.4065,0.86792 -0.34571,0.14795 -0.9375,0.15893 -1.77539,0.033 -1.11768,-0.19629 -1.99878,0.12451 -2.64331,0.9624 -0.50684,0.67529 -0.76026,1.5249 -0.76025,2.54883 -1e-5,1.01513 0.25195,1.88818 0.75586,2.61914 0.6372,0.83642 1.53002,1.18358 2.67846,1.0415 2.66748,-0.13331 5.7561,-0.19996 9.26587,-0.19995 3.49071,-1e-5 6.06077,0.0688 7.71021,0.20655 1.25974,0.0923 2.2258,-0.27394 2.89819,-1.09864 0.52146,-0.75293 0.7551,-1.66626 0.70093,-2.73999 -0.0528,-1.03418 -0.42996,-1.93286 -1.13159,-2.69604 -0.66946,-0.71778 -1.53299,-0.97705 -2.59058,-0.77783 -2.1343,0.21826 -3.77785,0.28344 -4.93066,0.19555 -1.25539,-0.0659 -1.88308,-0.27173 -1.88306,-0.61743 l 0,-5.91504 c 0.37498,1.0796 1.52488,1.93287 3.44971,2.55982 2.03464,0.72949 4.0737,1.09424 6.11718,1.09424 5.50339,0 9.89792,-2.094 13.1836,-6.28199 2.80367,-3.43798 4.20552,-7.87498 4.20557,-13.31103 -5e-5,-5.4741 -1.4019,-9.92868 -4.20557,-13.36377 -3.29154,-4.19821 -7.68607,-6.29733 -13.1836,-6.29737 -1.70656,4e-5 -3.45192,0.23515 -5.23608,0.70533 -0.73391,0.23295 -1.79811,0.62333 -3.19263,1.17114 -0.79689,0.35746 -1.25172,0.53617 -1.3645,0.53613 0.15086,0.0249 0.27245,-0.34273 0.36475,-1.10302 -2.51808,0.13773 -4.54542,0.20658 -6.08203,0.20654 -1.49562,4e-5 -2.89381,-0.0651 -4.19458,-0.19556 -1.10743,-0.0996 -1.97169,0.30399 -2.59278,1.21069 -0.49512,0.77055 -0.74268,1.65458 -0.74267,2.6521 -1e-5,1.02982 0.25781,1.88529 0.77344,2.56641 0.64599,0.78079 1.51903,1.10233 2.61914,0.9646 0.958,3e-5 1.61132,0.0425 1.95996,0.12744 0.15526,0.0528 0.2329,0.25858 0.23291,0.61743 z"
         style="letter-spacing:-1.73000014px"
         id="path3233" />
      <path
         d="m 433.15366,367.18719 c -5.87258,4e-5 -10.48976,2.11381 -13.85157,6.34131 -3.00147,3.81009 -4.5022,8.50271 -4.50219,14.07788 -10e-6,5.49172 1.50072,10.14259 4.50219,13.95264 3.35595,4.22022 7.97313,6.33032 13.85157,6.33032 3.94626,0 7.14987,-0.4021 9.61084,-1.2063 2.74654,-0.91406 5.29757,-2.52538 7.65307,-4.83398 0.86275,-0.91845 1.26778,-1.90795 1.21509,-2.96851 -0.0557,-0.90819 -0.44828,-1.72704 -1.17773,-2.45654 -0.731,-0.67528 -1.59086,-1.04149 -2.57959,-1.09863 -1.12797,-0.0527 -2.06107,0.31275 -2.79932,1.09643 -1.72269,1.63331 -3.13406,2.68873 -4.23413,3.16626 -1.90579,0.64308 -4.46853,0.96461 -7.68823,0.9646 -2.92678,1e-5 -5.25442,-1.02465 -6.98291,-3.07397 -1.65383,-2.02001 -2.67629,-4.36669 -3.06739,-7.04004 1.37108,-0.13182 5.24925,-0.17503 11.63452,-0.12964 3.98289,2e-5 9.56101,0.0689 16.73438,0.20654 l 0.10327,-3.25415 c -4e-5,-5.32761 -1.52933,-9.90524 -4.58789,-13.73291 -3.35892,-4.2275 -7.97024,-6.34127 -13.83398,-6.34131 z m 0,7.33448 c 2.7905,3e-5 5.08078,0.96097 6.87085,2.88281 1.50729,1.64065 2.49752,3.51199 2.9707,5.61401 -2.87112,0.10843 -6.12893,0.16262 -9.77344,0.1626 -3.23,2e-5 -6.48781,-0.0549 -9.77344,-0.16479 0.43065,-2.15623 1.20995,-3.97629 2.33789,-5.46021 2.1577,-2.02292 4.61351,-3.03439 7.36744,-3.03442 z"
         style="letter-spacing:-1.18000007px"
         id="path3235" />
      <path
         d="m 476.38478,374.52167 c 3.18015,3e-5 5.46823,0.6116 6.86426,1.83471 1.22604,1.05912 2.01266,2.97733 2.35986,5.75464 -3e-5,1.11184 0.46945,1.96145 1.40845,2.54883 0.84811,0.45705 1.85446,0.61233 3.01904,0.46582 1.0195,-0.10252 1.85958,-0.45554 2.52027,-1.05908 0.7646,-0.74998 1.04366,-1.60471 0.83715,-2.56421 -0.44535,-1.69187 -0.71341,-3.4343 -0.8042,-5.22729 -0.0865,-1.9614 0.11056,-3.59689 0.59107,-4.9065 0.48775,-1.16305 0.39473,-2.12691 -0.27905,-2.8916 -0.58305,-0.64156 -1.481,-1.04513 -2.69385,-1.21069 -1.06205,-0.14498 -2.03837,-0.11569 -2.92896,0.0879 -1.2056,0.42191 -1.76224,1.05765 -1.66992,1.90722 -3e-5,0.0601 0.13327,0.0616 0.3999,0.004 0.0967,-0.007 -0.0337,-0.10031 -0.39111,-0.27905 l -0.66138,-0.33179 c -1.19241,-0.54635 -2.49539,-0.9338 -3.90893,-1.16236 -1.53372,-0.20357 -3.08792,-0.30538 -4.6626,-0.30542 -5.64699,4e-5 -9.99098,1.63188 -13.03198,4.89551 -4.23634,3.7808 -6.3545,8.81766 -6.35449,15.1106 -1e-5,6.67677 1.93871,11.88135 5.81616,15.61377 3.53026,3.38818 8.19212,5.08227 13.98559,5.08227 3.84373,0 6.97116,-0.49731 9.38233,-1.49194 3.00729,-1.21435 5.61983,-3.4226 7.83764,-6.62476 0.57125,-0.96532 0.70529,-1.96654 0.4021,-3.00366 -0.27396,-0.88622 -0.89506,-1.61424 -1.86328,-2.18408 -0.939,-0.5244 -1.9285,-0.70824 -2.9685,-0.55151 -1.07377,0.1128 -1.84867,0.6753 -2.32471,1.6875 -0.83646,1.46338 -2.15848,2.63672 -3.96606,3.52002 -1.88236,0.87451 -4.04886,1.31177 -6.49952,1.31176 -3.66066,1e-5 -6.54713,-1.20629 -8.65942,-3.61889 -2.03029,-2.33349 -3.04542,-5.53417 -3.04541,-9.60205 -1e-5,-4.14695 1.0349,-7.34104 3.10474,-9.58228 1.97898,-2.15182 4.70725,-3.22775 8.18481,-3.22778 z"
         style="font-weight:bold;text-align:start;writing-mode:lr-tb;text-anchor:start;font-family:Gungsuh;-inkscape-font-specification:Gungsuh Bold"
         id="path3237" />
    </g>
  </g>
</svg>
