<?xml version="1.0" encoding="UTF-8" standalone="no"?>
<!-- Created with Inkscape (http://www.inkscape.org/) -->
<svg id="svg2" xmlns:rdf="http://www.w3.org/1999/02/22-rdf-syntax-ns#" xmlns="http://www.w3.org/2000/svg" viewBox="0 0 297.78 73.382" height="100%" width="100%" version="1.1" xmlns:cc="http://creativecommons.org/ns#" xmlns:dc="http://purl.org/dc/elements/1.1/">
 <metadata id="metadata7">
  <rdf:RDF>
   <cc:Work rdf:about="">
    <dc:format>image/svg+xml</dc:format>
    <dc:type rdf:resource="http://purl.org/dc/dcmitype/StillImage"/>
    <dc:title/>
   </cc:Work>
  </rdf:RDF>
 </metadata>
 <g id="layer1" transform="translate(-202.09418,-348.26093)">
  <g id="text2985" style="word-spacing:0px;letter-spacing:0px;" line-height="125%" font-family="Lao UI" font-size="72px" font-style="normal" font-stretch="normal" font-variant="normal" font-weight="normal" fill="#000">
   <path id="path3225" d="m228.46,362.72,0,28.127c-0.00002,3.6108-0.31276,5.9788-0.93823,7.1038-0.96828,1.7344-3.0864,2.6016-6.3545,2.6016-1.7813,0.00001-3.1787-0.0915-4.1924-0.27465-0.72658-0.11719-1.3696-0.30249-1.9292-0.55591-0.00001-1.021,0.0857-2.3826,0.25708-4.0847,0.14354-1.1059,0.37645-2.8074,0.69873-5.1042l0.0681-0.48779c0.14501-1.352-0.22266-2.51-1.103-3.4739-0.65186-0.65183-1.5491-0.97776-2.6916-0.97778-1.169,0.00002-2.1738,0.36477-3.0146,1.0942-0.89649,0.85695-1.2986,1.9629-1.2063,3.3179,0.13769,2.1402,0.13769,4.5271,0,7.1609-0.13624,3.1685-0.45777,5.8608-0.9646,8.0772,1.5146,0.91845,3.8232,1.6164,6.9258,2.094,2.4829,0.36767,4.8669,0.55151,7.1521,0.55151,4.3755,0,7.7732-0.94409,10.193-2.8323,3.3252-2.5928,4.9878-6.9155,4.9878-12.968v-29.369c-0.00003-0.50386,0.15011-0.80928,0.45044-0.91626,0.28707-0.0703,1.029-0.0593,2.2258,0.033l0.88989,0.0703c1.3154,0.0909,2.3715-0.25118,3.1685-1.0261,0.74996-0.74995,1.125-1.6538,1.125-2.7114-0.00004-1.062-0.37504-1.9394-1.125-2.6323-0.8101-0.78217-1.8956-1.0986-3.2564-0.94922-4.2378,0.21832-8.1819,0.32745-11.832,0.3274-2.5796-0.038-5.2925-0.17061-8.1387-0.39771-1.3228-0.1479-2.3467,0.18389-3.0718,0.99536-0.62696,0.74273-0.94044,1.6282-0.94043,2.6565-0.00001,1.0372,0.31347,1.9263,0.94043,2.6675,0.71044,0.80424,1.7226,1.1602,3.0366,1.0679l2.061-0.0681c2.6968-0.0922,4.4128-0.0966,5.1482-0.0132,0.95359,0.16557,1.4304,0.4644,1.4304,0.89648z" fill="#008000"/>
   <path id="path3227" d="m267.78,404.99,1.3535-0.89649-0.0989,0.43506c0.2197,0.71924,0.45481,1.2041,0.70533,1.4546,0.46578,0.5332,1.1623,0.79981,2.0896,0.79981,1.8808-0.0923,3.3391-0.16114,4.3748-0.20655,1.5747,0,2.8007,0.0688,3.6782,0.20655,0.96969,0.0908,1.7644-0.28711,2.384-1.1338,0.38081-0.70899,0.57124-1.5535,0.57129-2.5334-0.00005-0.97412-0.18169-1.7988-0.54493-2.4741-0.62846-0.93456-1.4107-1.3557-2.3467-1.2634-1.3125,0.2754-2.1277,0.38306-2.4456,0.323-0.48637-0.10986-0.72953-0.46581-0.72949-1.0679v-18.475c-0.00004-4.5556-1.826-8.0346-5.4778-10.437-2.6792-1.6919-5.8675-2.5378-9.5647-2.5378-3.0542,0.00004-5.8616,0.356-8.4221,1.0679-2.8286,0.81449-5.3042,2.042-7.4268,3.6826-0.91553,0.64603-1.429,1.5257-1.5403,2.6389-0.0908,0.93021,0.12964,1.8348,0.66138,2.7136,0.51416,0.85257,1.248,1.3968,2.2017,1.6326,1.0224,0.19192,2.0207-0.0586,2.9949-0.75146,1.5952-1.2378,3.3765-2.1628,5.3438-2.7752,1.9233-0.58298,3.9858-0.87448,6.1875-0.87451,2.1401,0.00003,4.062,0.85037,5.7656,2.551,0.92575,1.2276,1.3886,2.5284,1.3887,3.9024-0.56106-0.2197-1.8787-0.37717-3.9529-0.47242-1.8794-0.0981-3.3377-0.14719-4.3748-0.14721-5.2354,0.00002-9.4915,1.4488-12.768,4.3462-3.0791,1.9951-4.6186,5.2617-4.6186,9.7998,0,4.144,1.1755,7.3916,3.5266,9.7427,2.4302,2.4302,5.9246,3.6453,10.483,3.6453,2.7978,0,5.354-0.33398,7.6684-1.002,1.7724-0.48633,2.7502-1.1404,2.9334-1.9622zm1.103-9.958c-1.0943,1.459-2.6353,2.707-4.623,3.7441-2.2324,1.1821-4.593,1.7732-7.0818,1.7732-1.793,0.00001-3.2395-0.56981-4.3396-1.7095-1.0488-1.0898-1.5733-2.5371-1.5732-4.3418-0.00002-1.8164,0.7097-3.3113,2.1292-4.4846,1.8574-1.5512,4.727-2.3269,8.6089-2.3269,0.65769,0.00002,1.7094,0.044,3.1553,0.13184,1.5644,0.13771,2.8059,0.26955,3.7244,0.3955z" fill="#008000"/>
   <path id="path3229" d="m292.34,377.47,0,21.441c-0.00001,0.48194-0.22194,0.7339-0.66577,0.75586-0.45558,0.0381-1.2063-0.0732-2.2522-0.33398-1.1807-0.19921-2.0933,0.12378-2.7378,0.96899-0.50391,0.7295-0.75587,1.6216-0.75586,2.6763-0.00001,1.0606,0.25195,1.9563,0.75586,2.6873,0.64306,0.83642,1.5439,1.1609,2.7026,0.97339,1.9556-0.1333,4.9673-0.19995,9.0352-0.19995,4.0576,0,7.4941,0.0666,10.31,0.19995,1.3842,0.1875,2.5107-0.10254,3.3794-0.87012,0.8115-0.75439,1.2173-1.6846,1.2173-2.7905-0.00003-1.1001-0.40579-2.0273-1.2173-2.7817-0.86868-0.77489-1.9607-1.0701-3.2761-0.88549h-0.323c-3.2227,0.32666-5.3577,0.46802-6.405,0.42407-1.251-0.0659-1.8765-0.34057-1.8765-0.82398v-15.664c2.8066-2.8491,5.1372-4.9746,6.9917-6.3765,1.9951-1.4751,3.5427-2.2126,4.6428-2.2126,0.87009,0.00003,1.4509,0.19925,1.7424,0.59765,0.53171,0.79544,0.81882,2.1812,0.86133,4.1572-0.00003,1.1221,0.44162,2.0391,1.325,2.751,0.77926,0.60354,1.7343,0.88186,2.8652,0.83497,1.1176-0.0556,2.0603-0.43943,2.8279-1.1514,0.85689-0.79978,1.2854-1.5644,1.2854-2.294-0.0557-3.8979-1.043-6.9294-2.9619-9.0945-1.8926-2.0903-4.1961-3.1355-6.9104-3.1355-2.1358,0.00004-3.9917,0.34428-5.5679,1.0327-1.8267,0.77347-3.8042,2.0633-5.9326,3.8694l-0.61743,0.41089c-0.35597,0.54789-0.46144,0.80277-0.3164,0.76465-0.15676-0.28708-0.23513-1.8764-0.23511-4.7681-2.4302,0.13774-4.5498,0.20658-6.3589,0.20655-1.7681,0.00003-3.2608-0.063-4.478-0.18897-1.1719-0.19625-2.0772,0.15531-2.7158,1.0547-0.49951,0.7222-0.74927,1.6099-0.74926,2.6631-0.00001,1.0767,0.23949,1.9336,0.7185,2.5708,0.68115,0.87014,1.6406,1.1756,2.8784,0.91625l0.0923-0.0351c0.84814-0.0395,1.4861,0.0213,1.9138,0.18237,0.53906,0.20072,0.80859,0.68997,0.8086,1.4678z" fill="#008000"/>
   <path id="path3231" d="m347.69,360.8c2.7759,0.00004,4.8391,0.51933,6.1897,1.5579,1.8838,1.7637,2.688,4.1609,2.4126,7.1916-0.0923,1.191,0.30319,2.179,1.1865,2.9641,0.76462,0.60062,1.73,0.90091,2.896,0.90088,1.122,0.00003,2.0442-0.30612,2.7664-0.91846,0.832-0.79537,1.1704-1.8237,1.0151-3.085-0.26078-1.563-0.3018-3.4973-0.12305-5.803,0.22262-2.5327,0.65768-4.4487,1.3052-5.748,0.47017-1.163,0.36104-2.1606-0.32739-2.9927-0.54643-0.602-1.3418-1.0275-2.3862-1.2766-1.169-0.2226-2.2002-0.20795-3.0938,0.0439-1.169,0.32525-1.7864,0.91192-1.8523,1.76l-0.11865,0.29883c-0.0249,0.12164,0.0644,0.18243,0.26807,0.18238-0.13627,0.0469-0.58304-0.17061-1.3403-0.65259-0.83352-0.49214-2.1819-0.91035-4.0452-1.2546-1.8721-0.33686-3.5713-0.50532-5.0977-0.50537-5.5942,0.00005-9.9514,1.418-13.072,4.2539-3.0615,2.7745-4.5923,6.5091-4.5923,11.204,0,5.1973,1.8098,9.0682,5.4294,11.613,2.0932,1.4268,5.6762,2.7041,10.749,3.832l1.5117,0.34497c3.5654,0.8467,5.9773,1.7278,7.2356,2.6433,1.3989,1.002,2.0984,2.5093,2.0984,4.522-0.00003,2.9297-0.87308,5.2764-2.6191,7.04-1.437,1.1353-3.7068,1.7029-6.8093,1.7029-3.6475,0-6.3523-0.63867-8.1145-1.916-1.9805-1.3638-2.814-3.6533-2.5005-6.8686,0.0542-1.1953-0.38454-2.1438-1.3162-2.8455-0.84669-0.56541-1.771-0.82542-2.773-0.78003-1.3213,0.00002-2.3276,0.34572-3.019,1.0371-0.78809,0.83937-1.0364,1.9153-0.74487,3.2278,0.49218,1.9175,0.78295,3.9588,0.87231,6.1238,0.0923,2.3232-0.0593,4.2254-0.45483,5.7063-0.24756,0.93018-0.0645,1.7637,0.54932,2.5005,0.62841,0.62842,1.4421,1.054,2.4412,1.2766,1.0386,0.19043,1.9687,0.12305,2.7905-0.20215,0.9785-0.36621,1.5307-1.0518,1.6567-2.0566,0.0337-0.37207,0.0608-0.51196,0.0813-0.41968,0.26806,0.0337,1.0283,0.39551,2.2808,1.0854,1.0078,0.50244,2.2156,0.87451,3.6233,1.1162,1.2231,0.23291,2.7422,0.34937,4.5571,0.34937,5.584,0,9.7456-1.333,12.485-3.999,3.4526-2.792,5.1789-6.4958,5.179-11.112-0.00004-2.7964-0.47611-5.2273-1.4282-7.2927-0.70902-1.5952-2.0105-2.9839-3.9045-4.166-0.89066-0.81149-2.3064-1.5337-4.2473-2.1665-1.0518-0.32224-2.7971-0.74192-5.2361-1.259l-2.3445-0.52076c-3.4219-0.82028-5.7239-1.6442-6.906-2.4719-2.0171-1.4912-3.0256-3.6211-3.0256-6.3896-0.00002-2.3759,0.69505-4.1997,2.0852-5.4712,1.7036-1.5366,4.3125-2.3049,7.8267-2.3049z"/>
   <path id="path3233" d="m392.06,374.52c2.937,0.00003,5.2302,1.0159,6.8796,3.0476,1.7006,2.6162,2.551,5.7093,2.551,9.2791-0.00004,3.5391-0.80204,6.4138-2.406,8.6243-1.7432,2.4229-4.0848,3.6343-7.0247,3.6343-3.0396,0.00001-5.4302-1.2114-7.1719-3.6343-1.5967-2.2002-2.395-5.0749-2.395-8.6243-0.00002-3.5801,0.85032-6.676,2.551-9.2878,1.6406-2.0258,3.9792-3.0388,7.0159-3.0388zm-17.249,33.836c-0.00001,0.47607-0.13551,0.76538-0.4065,0.86792-0.34571,0.14795-0.9375,0.15893-1.7754,0.033-1.1177-0.19629-1.9988,0.12451-2.6433,0.9624-0.50684,0.67529-0.76026,1.5249-0.76025,2.5488-0.00001,1.0151,0.25195,1.8882,0.75586,2.6191,0.6372,0.83642,1.53,1.1836,2.6785,1.0415,2.6675-0.13331,5.7561-0.19996,9.2659-0.19995,3.4907-0.00001,6.0608,0.0688,7.7102,0.20655,1.2597,0.0923,2.2258-0.27394,2.8982-1.0986,0.52146-0.75293,0.7551-1.6663,0.70093-2.74-0.0528-1.0342-0.42996-1.9329-1.1316-2.696-0.66946-0.71778-1.533-0.97705-2.5906-0.77783-2.1343,0.21826-3.7778,0.28344-4.9307,0.19555-1.2554-0.0659-1.8831-0.27173-1.8831-0.61743v-5.915c0.37498,1.0796,1.5249,1.9329,3.4497,2.5598,2.0346,0.72949,4.0737,1.0942,6.1172,1.0942,5.5034,0,9.8979-2.094,13.184-6.282,2.8037-3.438,4.2055-7.875,4.2056-13.311-0.00005-5.4741-1.4019-9.9287-4.2056-13.364-3.2915-4.1982-7.6861-6.2973-13.184-6.2974-1.7066,0.00004-3.4519,0.23515-5.2361,0.70533-0.73391,0.23295-1.7981,0.62333-3.1926,1.1711-0.79689,0.35746-1.2517,0.53617-1.3645,0.53613,0.15086,0.0249,0.27245-0.34273,0.36475-1.103-2.5181,0.13773-4.5454,0.20658-6.082,0.20654-1.4956,0.00004-2.8938-0.0651-4.1946-0.19556-1.1074-0.0996-1.9717,0.30399-2.5928,1.2107-0.49512,0.77055-0.74268,1.6546-0.74267,2.6521-0.00001,1.0298,0.25781,1.8853,0.77344,2.5664,0.64599,0.78079,1.519,1.1023,2.6191,0.9646,0.958,0.00003,1.6113,0.0425,1.96,0.12744,0.15526,0.0528,0.2329,0.25858,0.23291,0.61743z"/>
   <path id="path3235" d="m433.15,367.19c-5.8726,0.00004-10.49,2.1138-13.852,6.3413-3.0015,3.8101-4.5022,8.5027-4.5022,14.078-0.00001,5.4917,1.5007,10.143,4.5022,13.953,3.356,4.2202,7.9731,6.3303,13.852,6.3303,3.9463,0,7.1499-0.4021,9.6108-1.2063,2.7465-0.91406,5.2976-2.5254,7.6531-4.834,0.86275-0.91845,1.2678-1.908,1.2151-2.9685-0.0557-0.90819-0.44828-1.727-1.1777-2.4565-0.731-0.67528-1.5909-1.0415-2.5796-1.0986-1.128-0.0527-2.0611,0.31275-2.7993,1.0964-1.7227,1.6333-3.1341,2.6887-4.2341,3.1663-1.9058,0.64308-4.4685,0.96461-7.6882,0.9646-2.9268,0.00001-5.2544-1.0246-6.9829-3.074-1.6538-2.02-2.6763-4.3667-3.0674-7.04,1.3711-0.13182,5.2492-0.17503,11.635-0.12964,3.9829,0.00002,9.561,0.0689,16.734,0.20654l0.10327-3.2542c-0.00004-5.3276-1.5293-9.9052-4.5879-13.733-3.3589-4.2275-7.9702-6.3413-13.834-6.3413zm0,7.3345c2.7905,0.00003,5.0808,0.96097,6.8708,2.8828,1.5073,1.6406,2.4975,3.512,2.9707,5.614-2.8711,0.10843-6.1289,0.16262-9.7734,0.1626-3.23,0.00002-6.4878-0.0549-9.7734-0.16479,0.43065-2.1562,1.21-3.9763,2.3379-5.4602,2.1577-2.0229,4.6135-3.0344,7.3674-3.0344z"/>
   <path id="path3237" style="text-align:start;" d="m476.38,374.52c3.1802,0.00003,5.4682,0.6116,6.8643,1.8347,1.226,1.0591,2.0127,2.9773,2.3599,5.7546-0.00003,1.1118,0.46945,1.9614,1.4084,2.5488,0.84811,0.45705,1.8545,0.61233,3.019,0.46582,1.0195-0.10252,1.8596-0.45554,2.5203-1.0591,0.7646-0.74998,1.0437-1.6047,0.83715-2.5642-0.44535-1.6919-0.71341-3.4343-0.8042-5.2273-0.0865-1.9614,0.11056-3.5969,0.59107-4.9065,0.48775-1.163,0.39473-2.1269-0.27905-2.8916-0.58305-0.64156-1.481-1.0451-2.6938-1.2107-1.062-0.14498-2.0384-0.11569-2.929,0.0879-1.2056,0.42191-1.7622,1.0576-1.6699,1.9072-0.00003,0.0601,0.13327,0.0616,0.3999,0.004,0.0967-0.007-0.0337-0.10031-0.39111-0.27905l-0.66138-0.33179c-1.1924-0.54635-2.4954-0.9338-3.9089-1.1624-1.5337-0.20357-3.0879-0.30538-4.6626-0.30542-5.647,0.00004-9.991,1.6319-13.032,4.8955-4.2363,3.7808-6.3545,8.8177-6.3545,15.111-0.00001,6.6768,1.9387,11.881,5.8162,15.614,3.5303,3.3882,8.1921,5.0823,13.986,5.0823,3.8437,0,6.9712-0.49731,9.3823-1.4919,3.0073-1.2144,5.6198-3.4226,7.8376-6.6248,0.57125-0.96532,0.70529-1.9665,0.4021-3.0037-0.27396-0.88622-0.89506-1.6142-1.8633-2.1841-0.939-0.5244-1.9285-0.70824-2.9685-0.55151-1.0738,0.1128-1.8487,0.6753-2.3247,1.6875-0.83646,1.4634-2.1585,2.6367-3.9661,3.52-1.8824,0.87451-4.0489,1.3118-6.4995,1.3118-3.6607,0.00001-6.5471-1.2063-8.6594-3.6189-2.0303-2.3335-3.0454-5.5342-3.0454-9.602-0.00001-4.147,1.0349-7.341,3.1047-9.5823,1.979-2.1518,4.7072-3.2278,8.1848-3.2278z"/>
  </g>
 </g>
</svg>
